{
	"patcher" : 	{
		"fileversion" : 1,
		"appversion" : 		{
			"major" : 8,
			"minor" : 5,
			"revision" : 4,
			"architecture" : "x64",
			"modernui" : 1
		}
,
		"classnamespace" : "box",
		"rect" : [ 449.0, 87.0, 1326.0, 723.0 ],
		"bglocked" : 0,
		"openinpresentation" : 0,
		"default_fontsize" : 12.0,
		"default_fontface" : 0,
		"default_fontname" : "Arial",
		"gridonopen" : 1,
		"gridsize" : [ 15.0, 15.0 ],
		"gridsnaponopen" : 1,
		"objectsnaponopen" : 1,
		"statusbarvisible" : 2,
		"toolbarvisible" : 1,
		"lefttoolbarpinned" : 0,
		"toptoolbarpinned" : 0,
		"righttoolbarpinned" : 0,
		"bottomtoolbarpinned" : 0,
		"toolbars_unpinned_last_save" : 0,
		"tallnewobj" : 0,
		"boxanimatetime" : 200,
		"enablehscroll" : 1,
		"enablevscroll" : 1,
		"devicewidth" : 0.0,
		"description" : "",
		"digest" : "",
		"tags" : "",
		"style" : "",
		"subpatcher_template" : "",
		"assistshowspatchername" : 0,
		"boxes" : [ 			{
				"box" : 				{
					"id" : "obj-8",
					"maxclass" : "number",
					"numinlets" : 1,
					"numoutlets" : 2,
					"outlettype" : [ "", "bang" ],
					"parameter_enable" : 0,
					"patching_rect" : [ 1025.208042323589325, 333.992035806179047, 50.0, 22.0 ]
				}

			}
, 			{
				"box" : 				{
					"id" : "obj-4",
					"maxclass" : "comment",
					"numinlets" : 1,
					"numoutlets" : 0,
					"patching_rect" : [ 1025.208042323589325, 504.411072373390198, 44.0, 20.0 ],
					"text" : "preset"
				}

			}
, 			{
				"box" : 				{
					"bubblesize" : 32,
					"id" : "obj-1",
					"maxclass" : "preset",
					"numinlets" : 1,
					"numoutlets" : 5,
					"outlettype" : [ "preset", "int", "preset", "int", "" ],
					"patching_rect" : [ 1025.208042323589325, 374.453182816505432, 225.5, 116.800394773483276 ],
					"preset_data" : [ 						{
							"number" : 1,
							"data" : [ 256, "obj-2", "matrixctrl", "list", 0, 0, 0.0, 0, 1, 0.0, 0, 2, 0.0, 0, 3, 0.0, 0, 4, 0.0, 0, 5, 1.0, 0, 6, 0.0, 0, 7, 0.0, 1, 0, 0.0, 1, 1, 0.0, 1, 2, 0.0, 1, 3, 0.0, 1, 4, 0.0, 1, 5, 0.0, 1, 6, 0.0, 1, 7, 0.0, 2, 0, 1.0, 2, 1, 1.0, 2, 2, 0.0, 2, 3, 0.0, 2, 4, 0.0, 2, 5, 0.0, 2, 6, 0.0, 2, 7, 0.0, 3, 0, 0.0, 3, 1, 0.0, 3, 2, 0.0, 3, 3, 1.0, 3, 4, 0.0, 3, 5, 0.0, 3, 6, 0.0, 3, 7, 0.0, 4, 0, 0.0, 4, 1, 1.0, 4, 2, 0.0, 4, 3, 0.0, 4, 4, 0.0, 4, 5, 1.0, 4, 6, 0.0, 4, 7, 1.0, 5, 0, 0.0, 5, 1, 1.0, 5, 2, 0.0, 5, 3, 0.0, 5, 4, 0.0, 5, 5, 0.0, 5, 6, 0.0, 5, 7, 0.0, 6, 0, 0.0, 6, 1, 0.0, 6, 2, 0.0, 6, 3, 0.0, 6, 4, 1.0, 6, 5, 0.0, 6, 6, 0.0, 6, 7, 0.0, 7, 0, 0.0, 7, 1, 0.0, 7, 2, 0.0, 7, 3, 0.0, 7, 4, 0.0, 7, 5, 0.0, 7, 6, 0.0, 7, 7, 0.0, 8, 0, 0.0, 8, 1, 0.0, 8, 2, 1.0, 8, 3, 0.0, 8, 4, 0.0, 8, 5, 0.0, 8, 6, 0.0, 8, 7, 0.0, 9, 0, 1.0, 9, 1, 0.0, 9, 2, 0.0, 9, 3, 0.0, 9, 4, 0.0, 9, 5, 0.0, 9, 6, 1.0, 9, 7, 0.0, 10, 0, 0.0, 10, 1, 0.0, 10, 2, 0.0, 10, 3, 0.0, 136, "obj-2", "matrixctrl", "list", 10, 4, 0.0, 10, 5, 0.0, 10, 6, 0.0, 10, 7, 0.0, 11, 0, 0.0, 11, 1, 0.0, 11, 2, 0.0, 11, 3, 0.0, 11, 4, 1.0, 11, 5, 0.0, 11, 6, 0.0, 11, 7, 0.0, 12, 0, 0.0, 12, 1, 0.0, 12, 2, 1.0, 12, 3, 0.0, 12, 4, 0.0, 12, 5, 0.0, 12, 6, 0.0, 12, 7, 0.0, 13, 0, 0.0, 13, 1, 0.0, 13, 2, 0.0, 13, 3, 0.0, 13, 4, 0.0, 13, 5, 0.0, 13, 6, 1.0, 13, 7, 0.0, 14, 0, 1.0, 14, 1, 0.0, 14, 2, 0.0, 14, 3, 1.0, 14, 4, 0.0, 14, 5, 1.0, 14, 6, 0.0, 14, 7, 0.0, 15, 0, 0.0, 15, 1, 0.0, 15, 2, 0.0, 15, 3, 0.0, 15, 4, 0.0, 15, 5, 0.0, 15, 6, 0.0, 15, 7, 0.0, 5, "obj-15", "number", "int", 3, 5, "obj-20", "mc.live.gain~", "float", 0.0, 5, "obj-37", "number", "int", 8, 5, "obj-81", "flonum", "float", 45.099998474121094 ]
						}
, 						{
							"number" : 2,
							"data" : [ 256, "obj-2", "matrixctrl", "list", 0, 0, 0.0, 0, 1, 0.0, 0, 2, 0.0, 0, 3, 0.0, 0, 4, 0.0, 0, 5, 1.0, 0, 6, 0.0, 0, 7, 0.0, 1, 0, 0.0, 1, 1, 0.0, 1, 2, 0.0, 1, 3, 0.0, 1, 4, 0.0, 1, 5, 0.0, 1, 6, 0.0, 1, 7, 0.0, 2, 0, 0.0, 2, 1, 0.0, 2, 2, 0.0, 2, 3, 0.0, 2, 4, 0.0, 2, 5, 0.0, 2, 6, 0.0, 2, 7, 0.0, 3, 0, 0.0, 3, 1, 0.0, 3, 2, 0.0, 3, 3, 0.0, 3, 4, 0.0, 3, 5, 0.0, 3, 6, 0.0, 3, 7, 0.0, 4, 0, 0.0, 4, 1, 0.0, 4, 2, 0.0, 4, 3, 0.0, 4, 4, 0.0, 4, 5, 0.0, 4, 6, 0.0, 4, 7, 1.0, 5, 0, 0.0, 5, 1, 0.0, 5, 2, 0.0, 5, 3, 0.0, 5, 4, 0.0, 5, 5, 0.0, 5, 6, 0.0, 5, 7, 0.0, 6, 0, 0.0, 6, 1, 0.0, 6, 2, 0.0, 6, 3, 0.0, 6, 4, 0.0, 6, 5, 0.0, 6, 6, 0.0, 6, 7, 0.0, 7, 0, 0.0, 7, 1, 0.0, 7, 2, 0.0, 7, 3, 0.0, 7, 4, 0.0, 7, 5, 0.0, 7, 6, 0.0, 7, 7, 0.0, 8, 0, 0.0, 8, 1, 0.0, 8, 2, 0.0, 8, 3, 0.0, 8, 4, 0.0, 8, 5, 0.0, 8, 6, 0.0, 8, 7, 0.0, 9, 0, 0.0, 9, 1, 0.0, 9, 2, 0.0, 9, 3, 0.0, 9, 4, 0.0, 9, 5, 0.0, 9, 6, 1.0, 9, 7, 0.0, 10, 0, 0.0, 10, 1, 0.0, 10, 2, 0.0, 10, 3, 0.0, 136, "obj-2", "matrixctrl", "list", 10, 4, 0.0, 10, 5, 0.0, 10, 6, 0.0, 10, 7, 0.0, 11, 0, 0.0, 11, 1, 0.0, 11, 2, 0.0, 11, 3, 0.0, 11, 4, 1.0, 11, 5, 0.0, 11, 6, 0.0, 11, 7, 0.0, 12, 0, 0.0, 12, 1, 0.0, 12, 2, 0.0, 12, 3, 0.0, 12, 4, 0.0, 12, 5, 0.0, 12, 6, 0.0, 12, 7, 0.0, 13, 0, 0.0, 13, 1, 0.0, 13, 2, 0.0, 13, 3, 0.0, 13, 4, 0.0, 13, 5, 0.0, 13, 6, 1.0, 13, 7, 0.0, 14, 0, 1.0, 14, 1, 0.0, 14, 2, 0.0, 14, 3, 0.0, 14, 4, 0.0, 14, 5, 1.0, 14, 6, 0.0, 14, 7, 0.0, 15, 0, 0.0, 15, 1, 0.0, 15, 2, 0.0, 15, 3, 0.0, 15, 4, 0.0, 15, 5, 0.0, 15, 6, 0.0, 15, 7, 0.0, 5, "obj-15", "number", "int", 13, 5, "obj-20", "mc.live.gain~", "float", 0.0, 5, "obj-37", "number", "int", 8, 5, "obj-81", "flonum", "float", 9.399999618530273 ]
						}
, 						{
							"number" : 3,
							"data" : [ 256, "obj-2", "matrixctrl", "list", 0, 0, 0.0, 0, 1, 0.0, 0, 2, 0.0, 0, 3, 0.0, 0, 4, 0.0, 0, 5, 0.0, 0, 6, 0.0, 0, 7, 0.0, 1, 0, 0.0, 1, 1, 0.0, 1, 2, 1.0, 1, 3, 0.0, 1, 4, 0.0, 1, 5, 0.0, 1, 6, 0.0, 1, 7, 0.0, 2, 0, 0.0, 2, 1, 0.0, 2, 2, 0.0, 2, 3, 0.0, 2, 4, 0.0, 2, 5, 1.0, 2, 6, 0.0, 2, 7, 0.0, 3, 0, 0.0, 3, 1, 0.0, 3, 2, 1.0, 3, 3, 0.0, 3, 4, 0.0, 3, 5, 0.0, 3, 6, 0.0, 3, 7, 0.0, 4, 0, 0.0, 4, 1, 0.0, 4, 2, 0.0, 4, 3, 0.0, 4, 4, 0.0, 4, 5, 0.0, 4, 6, 0.0, 4, 7, 0.0, 5, 0, 0.0, 5, 1, 0.0, 5, 2, 0.0, 5, 3, 0.0, 5, 4, 0.0, 5, 5, 0.0, 5, 6, 0.0, 5, 7, 0.0, 6, 0, 0.0, 6, 1, 0.0, 6, 2, 0.0, 6, 3, 0.0, 6, 4, 0.0, 6, 5, 0.0, 6, 6, 0.0, 6, 7, 0.0, 7, 0, 0.0, 7, 1, 0.0, 7, 2, 0.0, 7, 3, 0.0, 7, 4, 0.0, 7, 5, 0.0, 7, 6, 0.0, 7, 7, 0.0, 8, 0, 0.0, 8, 1, 1.0, 8, 2, 0.0, 8, 3, 0.0, 8, 4, 0.0, 8, 5, 0.0, 8, 6, 0.0, 8, 7, 0.0, 9, 0, 0.0, 9, 1, 0.0, 9, 2, 0.0, 9, 3, 0.0, 9, 4, 0.0, 9, 5, 0.0, 9, 6, 1.0, 9, 7, 0.0, 10, 0, 0.0, 10, 1, 0.0, 10, 2, 0.0, 10, 3, 0.0, 136, "obj-2", "matrixctrl", "list", 10, 4, 0.0, 10, 5, 0.0, 10, 6, 0.0, 10, 7, 0.0, 11, 0, 0.0, 11, 1, 0.0, 11, 2, 1.0, 11, 3, 0.0, 11, 4, 0.0, 11, 5, 0.0, 11, 6, 0.0, 11, 7, 0.0, 12, 0, 0.0, 12, 1, 0.0, 12, 2, 0.0, 12, 3, 0.0, 12, 4, 0.0, 12, 5, 0.0, 12, 6, 0.0, 12, 7, 0.0, 13, 0, 0.0, 13, 1, 0.0, 13, 2, 0.0, 13, 3, 0.0, 13, 4, 1.0, 13, 5, 0.0, 13, 6, 0.0, 13, 7, 0.0, 14, 0, 0.0, 14, 1, 0.0, 14, 2, 0.0, 14, 3, 0.0, 14, 4, 0.0, 14, 5, 1.0, 14, 6, 0.0, 14, 7, 0.0, 15, 0, 0.0, 15, 1, 0.0, 15, 2, 0.0, 15, 3, 0.0, 15, 4, 0.0, 15, 5, 0.0, 15, 6, 0.0, 15, 7, 0.0, 5, "obj-15", "number", "int", 11, 5, "obj-20", "mc.live.gain~", "float", 0.0, 5, "obj-37", "number", "int", 8, 5, "obj-81", "flonum", "float", 9.800000190734863 ]
						}
, 						{
							"number" : 4,
							"data" : [ 256, "obj-2", "matrixctrl", "list", 0, 0, 0.0, 0, 1, 0.0, 0, 2, 0.0, 0, 3, 0.0, 0, 4, 0.0, 0, 5, 0.0, 0, 6, 0.0, 0, 7, 0.0, 1, 0, 0.0, 1, 1, 0.0, 1, 2, 0.0, 1, 3, 0.0, 1, 4, 0.0, 1, 5, 0.0, 1, 6, 0.0, 1, 7, 0.0, 2, 0, 0.0, 2, 1, 0.0, 2, 2, 0.0, 2, 3, 0.0, 2, 4, 0.0, 2, 5, 0.0, 2, 6, 0.0, 2, 7, 0.0, 3, 0, 0.0, 3, 1, 0.0, 3, 2, 0.0, 3, 3, 0.0, 3, 4, 0.0, 3, 5, 0.0, 3, 6, 0.0, 3, 7, 0.0, 4, 0, 0.0, 4, 1, 0.0, 4, 2, 0.0, 4, 3, 0.0, 4, 4, 0.0, 4, 5, 0.0, 4, 6, 0.0, 4, 7, 0.0, 5, 0, 0.0, 5, 1, 0.0, 5, 2, 0.0, 5, 3, 0.0, 5, 4, 0.0, 5, 5, 0.0, 5, 6, 0.0, 5, 7, 0.0, 6, 0, 0.0, 6, 1, 0.0, 6, 2, 0.0, 6, 3, 0.0, 6, 4, 0.0, 6, 5, 0.0, 6, 6, 0.0, 6, 7, 0.0, 7, 0, 0.0, 7, 1, 0.0, 7, 2, 0.0, 7, 3, 0.0, 7, 4, 0.0, 7, 5, 0.0, 7, 6, 0.0, 7, 7, 0.0, 8, 0, 0.0, 8, 1, 0.0, 8, 2, 0.0, 8, 3, 0.0, 8, 4, 0.0, 8, 5, 0.0, 8, 6, 0.0, 8, 7, 0.0, 9, 0, 0.0, 9, 1, 0.0, 9, 2, 0.0, 9, 3, 0.0, 9, 4, 0.0, 9, 5, 0.0, 9, 6, 1.0, 9, 7, 0.0, 10, 0, 0.0, 10, 1, 0.0, 10, 2, 0.0, 10, 3, 0.0, 136, "obj-2", "matrixctrl", "list", 10, 4, 0.0, 10, 5, 0.0, 10, 6, 0.0, 10, 7, 0.0, 11, 0, 0.0, 11, 1, 0.0, 11, 2, 0.0, 11, 3, 0.0, 11, 4, 0.0, 11, 5, 0.0, 11, 6, 0.0, 11, 7, 0.0, 12, 0, 0.0, 12, 1, 0.0, 12, 2, 0.0, 12, 3, 0.0, 12, 4, 0.0, 12, 5, 0.0, 12, 6, 0.0, 12, 7, 0.0, 13, 0, 0.0, 13, 1, 0.0, 13, 2, 0.0, 13, 3, 0.0, 13, 4, 0.0, 13, 5, 0.0, 13, 6, 0.0, 13, 7, 0.0, 14, 0, 0.0, 14, 1, 0.0, 14, 2, 0.0, 14, 3, 0.0, 14, 4, 0.0, 14, 5, 1.0, 14, 6, 0.0, 14, 7, 0.0, 15, 0, 0.0, 15, 1, 0.0, 15, 2, 0.0, 15, 3, 0.0, 15, 4, 0.0, 15, 5, 0.0, 15, 6, 0.0, 15, 7, 0.0, 5, "obj-15", "number", "int", 6, 5, "obj-20", "mc.live.gain~", "float", 0.0, 5, "obj-37", "number", "int", 8, 5, "obj-81", "flonum", "float", 9.800000190734863 ]
						}
 ]
				}

			}
, 			{
				"box" : 				{
					"bubble" : 1,
					"bubbleside" : 2,
					"id" : "obj-109",
					"maxclass" : "comment",
					"numinlets" : 1,
					"numoutlets" : 0,
					"patching_rect" : [ 896.825303375720978, 425.157502055168152, 65.0, 39.0 ],
					"text" : "Distortion"
				}

			}
, 			{
				"box" : 				{
					"bubble" : 1,
					"bubbleside" : 2,
					"id" : "obj-106",
					"linecount" : 2,
					"maxclass" : "comment",
					"numinlets" : 1,
					"numoutlets" : 0,
					"patching_rect" : [ 588.280565202236176, 138.611900746822357, 125.0, 52.0 ],
					"text" : "Plays the individual samples"
				}

			}
, 			{
				"box" : 				{
					"bubble" : 1,
					"bubbleside" : 3,
					"id" : "obj-105",
					"linecount" : 3,
					"maxclass" : "comment",
					"numinlets" : 1,
					"numoutlets" : 0,
					"patching_rect" : [ 596.000008881092072, 17.43341851234436, 150.0, 51.0 ],
					"text" : "Prepares mc.play~ with all the 808 buffer names"
				}

			}
, 			{
				"box" : 				{
					"bubble" : 1,
					"bubbleside" : 0,
					"id" : "obj-104",
					"linecount" : 2,
					"maxclass" : "comment",
					"numinlets" : 1,
					"numoutlets" : 0,
					"patching_rect" : [ 1012.000015079975128, 201.43342125415802, 150.0, 52.0 ],
					"text" : "Modulates the 808 samples"
				}

			}
, 			{
				"box" : 				{
					"id" : "obj-102",
					"maxclass" : "newobj",
					"numinlets" : 0,
					"numoutlets" : 1,
					"outlettype" : [ "" ],
					"patching_rect" : [ 633.400009274482727, 201.43342125415802, 108.0, 22.0 ],
					"text" : "r sequencerOutput"
				}

			}
, 			{
				"box" : 				{
					"id" : "obj-101",
					"maxclass" : "newobj",
					"numinlets" : 1,
					"numoutlets" : 0,
					"patching_rect" : [ 481.480563104152679, 499.000007271766663, 110.0, 22.0 ],
					"text" : "s sequencerOutput"
				}

			}
, 			{
				"box" : 				{
					"fontface" : 3,
					"id" : "obj-100",
					"linecount" : 2,
					"maxclass" : "comment",
					"numinlets" : 1,
					"numoutlets" : 0,
					"patching_rect" : [ 410.548190832138062, 91.455014228820801, 85.0, 33.0 ],
					"text" : "Boolean operators!"
				}

			}
, 			{
				"box" : 				{
					"id" : "obj-97",
					"maxclass" : "newobj",
					"numinlets" : 6,
					"numoutlets" : 1,
					"outlettype" : [ "signal" ],
					"patching_rect" : [ 82.363568186759949, 45.54655909538269, 114.0, 22.0 ],
					"text" : "scale~ -1. 1. 0.1 1.2"
				}

			}
, 			{
				"box" : 				{
					"id" : "obj-96",
					"maxclass" : "newobj",
					"numinlets" : 1,
					"numoutlets" : 1,
					"outlettype" : [ "signal" ],
					"patching_rect" : [ 82.363568186759949, 10.809715747833252, 50.0, 22.0 ],
					"text" : "rand~ 1"
				}

			}
, 			{
				"box" : 				{
					"id" : "obj-93",
					"maxclass" : "newobj",
					"numinlets" : 1,
					"numoutlets" : 1,
					"outlettype" : [ "multichannelsignal" ],
					"patching_rect" : [ 907.825303375720978, 234.766756057739258, 54.0, 22.0 ],
					"text" : "mc.cos~"
				}

			}
, 			{
				"box" : 				{
					"id" : "obj-92",
					"maxclass" : "newobj",
					"numinlets" : 2,
					"numoutlets" : 1,
					"outlettype" : [ "multichannelsignal" ],
					"patching_rect" : [ 907.825303375720978, 201.43342125415802, 82.0, 22.0 ],
					"text" : "mc.phasor~ 1"
				}

			}
, 			{
				"box" : 				{
					"id" : "obj-90",
					"maxclass" : "newobj",
					"numinlets" : 2,
					"numoutlets" : 1,
					"outlettype" : [ "multichannelsignal" ],
					"patching_rect" : [ 792.708042323589325, 383.902480661869049, 40.0, 22.0 ],
					"text" : "mc.*~"
				}

			}
, 			{
				"box" : 				{
					"id" : "obj-89",
					"maxclass" : "newobj",
					"numinlets" : 6,
					"numoutlets" : 1,
					"outlettype" : [ "multichannelsignal" ],
					"patching_rect" : [ 1086.545304596424103, 96.739962160587311, 144.0, 22.0 ],
					"text" : "mc.scale~ -1. 1. 1. 10000"
				}

			}
, 			{
				"box" : 				{
					"id" : "obj-88",
					"maxclass" : "newobj",
					"numinlets" : 1,
					"numoutlets" : 1,
					"outlettype" : [ "multichannelsignal" ],
					"patching_rect" : [ 1086.545304596424103, 55.216223239898682, 116.0, 22.0 ],
					"text" : "mc.rand~ @chans 8"
				}

			}
, 			{
				"box" : 				{
					"id" : "obj-87",
					"maxclass" : "newobj",
					"numinlets" : 2,
					"numoutlets" : 1,
					"outlettype" : [ "multichannelsignal" ],
					"patching_rect" : [ 938.550035417079926, 106.417381942272186, 130.0, 22.0 ],
					"text" : "mc.cycle~ 2 @chans 8"
				}

			}
, 			{
				"box" : 				{
					"id" : "obj-86",
					"maxclass" : "newobj",
					"numinlets" : 2,
					"numoutlets" : 1,
					"outlettype" : [ "multichannelsignal" ],
					"patching_rect" : [ 907.825303375720978, 40.782971620559692, 130.0, 22.0 ],
					"text" : "mc.cycle~ 1 @chans 8"
				}

			}
, 			{
				"box" : 				{
					"id" : "obj-85",
					"maxclass" : "newobj",
					"numinlets" : 2,
					"numoutlets" : 1,
					"outlettype" : [ "signal" ],
					"patching_rect" : [ 907.825303375720978, 138.611900746822357, 29.5, 22.0 ],
					"text" : "*~"
				}

			}
, 			{
				"box" : 				{
					"id" : "obj-84",
					"maxclass" : "newobj",
					"numinlets" : 6,
					"numoutlets" : 1,
					"outlettype" : [ "multichannelsignal" ],
					"patching_rect" : [ 907.825303375720978, 169.778743863105774, 242.400001525878906, 22.0 ],
					"text" : "mc.scale~ -1. 1. 1. 400 2"
				}

			}
, 			{
				"box" : 				{
					"format" : 6,
					"id" : "obj-81",
					"maxclass" : "flonum",
					"numinlets" : 1,
					"numoutlets" : 2,
					"outlettype" : [ "", "bang" ],
					"parameter_enable" : 0,
					"patching_rect" : [ 907.825303375720978, 469.253577589988708, 50.0, 22.0 ]
				}

			}
, 			{
				"box" : 				{
					"id" : "obj-78",
					"maxclass" : "newobj",
					"numinlets" : 2,
					"numoutlets" : 1,
					"outlettype" : [ "multichannelsignal" ],
					"patching_rect" : [ 792.708042323589325, 488.000007271766663, 84.0, 22.0 ],
					"text" : "mc.overdrive~"
				}

			}
, 			{
				"box" : 				{
					"id" : "obj-75",
					"maxclass" : "button",
					"numinlets" : 1,
					"numoutlets" : 1,
					"outlettype" : [ "bang" ],
					"parameter_enable" : 0,
					"patching_rect" : [ 579.683453500270844, 333.992035806179047, 24.0, 24.0 ]
				}

			}
, 			{
				"box" : 				{
					"id" : "obj-72",
					"maxclass" : "newobj",
					"numinlets" : 2,
					"numoutlets" : 1,
					"outlettype" : [ "int" ],
					"patching_rect" : [ 374.232341468334198, 128.945663034915924, 29.5, 22.0 ],
					"text" : "!="
				}

			}
, 			{
				"box" : 				{
					"id" : "obj-71",
					"maxclass" : "newobj",
					"numinlets" : 2,
					"numoutlets" : 1,
					"outlettype" : [ "int" ],
					"patching_rect" : [ 374.232341468334198, 56.525516510009766, 29.5, 22.0 ],
					"text" : "<="
				}

			}
, 			{
				"box" : 				{
					"id" : "obj-70",
					"maxclass" : "newobj",
					"numinlets" : 2,
					"numoutlets" : 1,
					"outlettype" : [ "int" ],
					"patching_rect" : [ 333.588466584682465, 56.525516510009766, 29.5, 22.0 ],
					"text" : "<"
				}

			}
, 			{
				"box" : 				{
					"id" : "obj-69",
					"maxclass" : "newobj",
					"numinlets" : 2,
					"numoutlets" : 1,
					"outlettype" : [ "int" ],
					"patching_rect" : [ 333.588466584682465, 128.945663034915924, 29.5, 22.0 ],
					"text" : "=="
				}

			}
, 			{
				"box" : 				{
					"id" : "obj-68",
					"maxclass" : "newobj",
					"numinlets" : 2,
					"numoutlets" : 1,
					"outlettype" : [ "int" ],
					"patching_rect" : [ 374.232341468334198, 91.455014228820801, 29.5, 22.0 ],
					"text" : ">="
				}

			}
, 			{
				"box" : 				{
					"id" : "obj-67",
					"maxclass" : "newobj",
					"numinlets" : 2,
					"numoutlets" : 1,
					"outlettype" : [ "int" ],
					"patching_rect" : [ 333.588466584682465, 91.455014228820801, 29.5, 22.0 ],
					"text" : ">"
				}

			}
, 			{
				"box" : 				{
					"id" : "obj-66",
					"maxclass" : "newobj",
					"numinlets" : 2,
					"numoutlets" : 2,
					"outlettype" : [ "bang", "" ],
					"patching_rect" : [ 579.683453500270844, 301.215056300163269, 34.0, 22.0 ],
					"text" : "sel 1"
				}

			}
, 			{
				"box" : 				{
					"id" : "obj-63",
					"maxclass" : "newobj",
					"numinlets" : 2,
					"numoutlets" : 1,
					"outlettype" : [ "int" ],
					"patching_rect" : [ 579.683453500270844, 265.243831992149353, 29.5, 22.0 ],
					"text" : "> 0."
				}

			}
, 			{
				"box" : 				{
					"id" : "obj-62",
					"maxclass" : "message",
					"numinlets" : 2,
					"numoutlets" : 1,
					"outlettype" : [ "" ],
					"patching_rect" : [ 579.683453500270844, 369.560382485389709, 72.597111701965332, 22.0 ],
					"text" : "7"
				}

			}
, 			{
				"box" : 				{
					"id" : "obj-60",
					"maxclass" : "newobj",
					"numinlets" : 1,
					"numoutlets" : 2,
					"outlettype" : [ "int", "float" ],
					"patching_rect" : [ 633.280565202236176, 265.243831992149353, 60.0, 22.0 ],
					"text" : "unpack i f"
				}

			}
, 			{
				"box" : 				{
					"id" : "obj-59",
					"maxclass" : "newobj",
					"numinlets" : 1,
					"numoutlets" : 1,
					"outlettype" : [ "list" ],
					"patching_rect" : [ 633.280565202236176, 233.589154601097107, 56.0, 22.0 ],
					"text" : "listfunnel"
				}

			}
, 			{
				"box" : 				{
					"id" : "obj-51",
					"maxclass" : "message",
					"numinlets" : 2,
					"numoutlets" : 1,
					"outlettype" : [ "" ],
					"patching_rect" : [ 579.683453500270844, 399.776210904121399, 97.0, 22.0 ],
					"text" : "setvalue $1 start"
				}

			}
, 			{
				"box" : 				{
					"id" : "obj-49",
					"maxclass" : "newobj",
					"numinlets" : 2,
					"numoutlets" : 1,
					"outlettype" : [ "" ],
					"patching_rect" : [ 791.708042323589325, 248.915437340736389, 49.0, 22.0 ],
					"text" : "pack i s"
				}

			}
, 			{
				"box" : 				{
					"id" : "obj-38",
					"maxclass" : "newobj",
					"numinlets" : 1,
					"numoutlets" : 4,
					"outlettype" : [ "", "", "", "" ],
					"patching_rect" : [ 769.041375656922696, 201.43342125415802, 87.0, 22.0 ],
					"saved_object_attributes" : 					{
						"embed" : 0,
						"precision" : 6
					}
,
					"text" : "coll bufferLoad"
				}

			}
, 			{
				"box" : 				{
					"id" : "obj-37",
					"maxclass" : "number",
					"numinlets" : 1,
					"numoutlets" : 2,
					"outlettype" : [ "", "bang" ],
					"parameter_enable" : 0,
					"patching_rect" : [ 769.041375656922696, 169.778743863105774, 50.0, 22.0 ]
				}

			}
, 			{
				"box" : 				{
					"id" : "obj-35",
					"maxclass" : "newobj",
					"numinlets" : 2,
					"numoutlets" : 1,
					"outlettype" : [ "int" ],
					"patching_rect" : [ 769.041375656922696, 141.721188902854919, 29.5, 22.0 ],
					"text" : "+ 1"
				}

			}
, 			{
				"box" : 				{
					"id" : "obj-34",
					"maxclass" : "newobj",
					"numinlets" : 5,
					"numoutlets" : 4,
					"outlettype" : [ "int", "", "", "int" ],
					"patching_rect" : [ 769.041375656922696, 112.224784970283508, 61.0, 22.0 ],
					"text" : "counter 7"
				}

			}
, 			{
				"box" : 				{
					"id" : "obj-29",
					"maxclass" : "button",
					"numinlets" : 1,
					"numoutlets" : 1,
					"outlettype" : [ "bang" ],
					"parameter_enable" : 0,
					"patching_rect" : [ 769.041375656922696, 50.354279160499573, 24.0, 24.0 ]
				}

			}
, 			{
				"box" : 				{
					"id" : "obj-27",
					"maxclass" : "newobj",
					"numinlets" : 2,
					"numoutlets" : 3,
					"outlettype" : [ "bang", "bang", "int" ],
					"patching_rect" : [ 769.041375656922696, 82.728381037712097, 40.0, 22.0 ],
					"text" : "uzi 8"
				}

			}
, 			{
				"box" : 				{
					"id" : "obj-26",
					"maxclass" : "newobj",
					"numinlets" : 1,
					"numoutlets" : 1,
					"outlettype" : [ "bang" ],
					"patching_rect" : [ 769.041375656922696, 21.57729971408844, 58.0, 22.0 ],
					"text" : "loadbang"
				}

			}
, 			{
				"box" : 				{
					"id" : "obj-24",
					"maxclass" : "message",
					"numinlets" : 2,
					"numoutlets" : 1,
					"outlettype" : [ "" ],
					"patching_rect" : [ 792.708042323589325, 285.606086134910583, 106.0, 22.0 ],
					"text" : "setvalue $1 set $2"
				}

			}
, 			{
				"box" : 				{
					"id" : "obj-22",
					"maxclass" : "mc.ezdac~",
					"numinlets" : 1,
					"numoutlets" : 0,
					"patching_rect" : [ 791.708042323589325, 595.201781034469604, 45.0, 45.0 ]
				}

			}
, 			{
				"box" : 				{
					"id" : "obj-21",
					"maxclass" : "newobj",
					"numinlets" : 2,
					"numoutlets" : 1,
					"outlettype" : [ "multichannelsignal" ],
					"patching_rect" : [ 792.708042323589325, 436.903931736946106, 92.0, 22.0 ],
					"text" : "mc.mixdown~ 2"
				}

			}
, 			{
				"box" : 				{
					"id" : "obj-20",
					"lastchannelcount" : 2,
					"maxclass" : "mc.live.gain~",
					"numinlets" : 1,
					"numoutlets" : 4,
					"orientation" : 1,
					"outlettype" : [ "multichannelsignal", "", "float", "list" ],
					"parameter_enable" : 1,
					"patching_rect" : [ 792.708042323589325, 531.525516510009766, 207.0, 47.0 ],
					"saved_attribute_attributes" : 					{
						"valueof" : 						{
							"parameter_longname" : "mc.live.gain~",
							"parameter_mmax" : 6.0,
							"parameter_mmin" : -70.0,
							"parameter_shortname" : "mc.live.gain~",
							"parameter_type" : 0,
							"parameter_unitstyle" : 4
						}

					}
,
					"varname" : "mc.live.gain~"
				}

			}
, 			{
				"box" : 				{
					"id" : "obj-19",
					"maxclass" : "newobj",
					"numinlets" : 1,
					"numoutlets" : 3,
					"outlettype" : [ "multichannelsignal", "", "" ],
					"patching_rect" : [ 792.708042323589325, 318.699612498283386, 114.0, 22.0 ],
					"text" : "mc.play~ @chans 8"
				}

			}
, 			{
				"box" : 				{
					"id" : "obj-16",
					"maxclass" : "newobj",
					"numinlets" : 1,
					"numoutlets" : 1,
					"outlettype" : [ "" ],
					"patching_rect" : [ 85.588466584682465, 172.972994923591614, 111.0, 22.0 ],
					"text" : "prepend getcolumn"
				}

			}
, 			{
				"box" : 				{
					"id" : "obj-15",
					"maxclass" : "number",
					"numinlets" : 1,
					"numoutlets" : 2,
					"outlettype" : [ "", "bang" ],
					"parameter_enable" : 0,
					"patching_rect" : [ 90.863568186759949, 142.203761219978333, 50.0, 22.0 ]
				}

			}
, 			{
				"box" : 				{
					"id" : "obj-13",
					"maxclass" : "newobj",
					"numinlets" : 1,
					"numoutlets" : 3,
					"outlettype" : [ "signal", "signal", "int" ],
					"patching_rect" : [ 82.363568186759949, 110.89385712146759, 67.0, 22.0 ],
					"text" : "subdiv~ 16"
				}

			}
, 			{
				"box" : 				{
					"id" : "obj-12",
					"maxclass" : "newobj",
					"numinlets" : 2,
					"numoutlets" : 1,
					"outlettype" : [ "signal" ],
					"patching_rect" : [ 82.363568186759949, 83.555726647377014, 72.0, 22.0 ],
					"text" : "phasor~ 0.4"
				}

			}
, 			{
				"box" : 				{
					"columns" : 16,
					"id" : "obj-2",
					"maxclass" : "matrixctrl",
					"numinlets" : 1,
					"numoutlets" : 2,
					"outlettype" : [ "list", "list" ],
					"parameter_enable" : 0,
					"patching_rect" : [ 85.588466584682465, 229.570117354393005, 414.892096519470215, 261.683460235595703 ],
					"rows" : 8
				}

			}
, 			{
				"box" : 				{
					"id" : "obj-48",
					"linecount" : 2,
					"maxclass" : "newobj",
					"numinlets" : 1,
					"numoutlets" : 2,
					"outlettype" : [ "float", "bang" ],
					"patching_rect" : [ 259.588466584682465, 593.43341851234436, 152.0, 35.0 ],
					"text" : "buffer~ ride 808-Ride3.wav"
				}

			}
, 			{
				"box" : 				{
					"id" : "obj-47",
					"linecount" : 2,
					"maxclass" : "newobj",
					"numinlets" : 1,
					"numoutlets" : 2,
					"outlettype" : [ "float", "bang" ],
					"patching_rect" : [ 85.588466584682465, 593.43341851234436, 153.0, 35.0 ],
					"text" : "buffer~ closed-hihat 808-OpenHiHats02.wav"
				}

			}
, 			{
				"box" : 				{
					"id" : "obj-46",
					"linecount" : 2,
					"maxclass" : "newobj",
					"numinlets" : 1,
					"numoutlets" : 2,
					"outlettype" : [ "float", "bang" ],
					"patching_rect" : [ 85.588466584682465, 512.43341851234436, 153.0, 35.0 ],
					"text" : "buffer~ kick 808-Kicks01.wav"
				}

			}
, 			{
				"box" : 				{
					"id" : "obj-45",
					"linecount" : 2,
					"maxclass" : "newobj",
					"numinlets" : 1,
					"numoutlets" : 2,
					"outlettype" : [ "float", "bang" ],
					"patching_rect" : [ 85.588466584682465, 553.43341851234436, 153.0, 35.0 ],
					"text" : "buffer~ open-hihat 808-HiHats01.wav"
				}

			}
, 			{
				"box" : 				{
					"id" : "obj-44",
					"linecount" : 2,
					"maxclass" : "newobj",
					"numinlets" : 1,
					"numoutlets" : 2,
					"outlettype" : [ "float", "bang" ],
					"patching_rect" : [ 259.588466584682465, 635.43341851234436, 152.0, 35.0 ],
					"text" : "buffer~ cowbell 808-Cowbell3.wav"
				}

			}
, 			{
				"box" : 				{
					"id" : "obj-43",
					"linecount" : 2,
					"maxclass" : "newobj",
					"numinlets" : 1,
					"numoutlets" : 2,
					"outlettype" : [ "float", "bang" ],
					"patching_rect" : [ 85.588466584682465, 635.43341851234436, 153.0, 35.0 ],
					"text" : "buffer~ conga 808-Conga3.wav"
				}

			}
, 			{
				"box" : 				{
					"id" : "obj-42",
					"linecount" : 2,
					"maxclass" : "newobj",
					"numinlets" : 1,
					"numoutlets" : 2,
					"outlettype" : [ "float", "bang" ],
					"patching_rect" : [ 259.588466584682465, 553.43341851234436, 152.0, 35.0 ],
					"text" : "buffer~ clave 808-Clave1.wav"
				}

			}
, 			{
				"box" : 				{
					"id" : "obj-41",
					"linecount" : 2,
					"maxclass" : "newobj",
					"numinlets" : 1,
					"numoutlets" : 2,
					"outlettype" : [ "float", "bang" ],
					"patching_rect" : [ 259.588466584682465, 512.43341851234436, 152.0, 35.0 ],
					"text" : "buffer~ clap 808-Clap01.wav"
				}

			}
 ],
		"lines" : [ 			{
				"patchline" : 				{
					"destination" : [ "obj-59", 0 ],
					"source" : [ "obj-102", 0 ]
				}

			}
, 			{
				"patchline" : 				{
					"destination" : [ "obj-13", 0 ],
					"source" : [ "obj-12", 0 ]
				}

			}
, 			{
				"patchline" : 				{
					"destination" : [ "obj-15", 0 ],
					"source" : [ "obj-13", 2 ]
				}

			}
, 			{
				"patchline" : 				{
					"destination" : [ "obj-16", 0 ],
					"midpoints" : [ 100.363568186759949, 165.230770111083984, 95.088466584682465, 165.230770111083984 ],
					"source" : [ "obj-15", 0 ]
				}

			}
, 			{
				"patchline" : 				{
					"destination" : [ "obj-2", 0 ],
					"source" : [ "obj-16", 0 ]
				}

			}
, 			{
				"patchline" : 				{
					"destination" : [ "obj-90", 0 ],
					"source" : [ "obj-19", 0 ]
				}

			}
, 			{
				"patchline" : 				{
					"destination" : [ "obj-101", 0 ],
					"source" : [ "obj-2", 1 ]
				}

			}
, 			{
				"patchline" : 				{
					"destination" : [ "obj-22", 0 ],
					"source" : [ "obj-20", 0 ]
				}

			}
, 			{
				"patchline" : 				{
					"destination" : [ "obj-78", 0 ],
					"source" : [ "obj-21", 0 ]
				}

			}
, 			{
				"patchline" : 				{
					"destination" : [ "obj-19", 0 ],
					"source" : [ "obj-24", 0 ]
				}

			}
, 			{
				"patchline" : 				{
					"destination" : [ "obj-29", 0 ],
					"source" : [ "obj-26", 0 ]
				}

			}
, 			{
				"patchline" : 				{
					"destination" : [ "obj-34", 0 ],
					"source" : [ "obj-27", 0 ]
				}

			}
, 			{
				"patchline" : 				{
					"destination" : [ "obj-27", 0 ],
					"source" : [ "obj-29", 0 ]
				}

			}
, 			{
				"patchline" : 				{
					"destination" : [ "obj-35", 0 ],
					"source" : [ "obj-34", 0 ]
				}

			}
, 			{
				"patchline" : 				{
					"destination" : [ "obj-37", 0 ],
					"source" : [ "obj-35", 0 ]
				}

			}
, 			{
				"patchline" : 				{
					"destination" : [ "obj-38", 0 ],
					"source" : [ "obj-37", 0 ]
				}

			}
, 			{
				"patchline" : 				{
					"destination" : [ "obj-49", 0 ],
					"source" : [ "obj-38", 1 ]
				}

			}
, 			{
				"patchline" : 				{
					"destination" : [ "obj-49", 1 ],
					"source" : [ "obj-38", 0 ]
				}

			}
, 			{
				"patchline" : 				{
					"destination" : [ "obj-24", 0 ],
					"source" : [ "obj-49", 0 ]
				}

			}
, 			{
				"patchline" : 				{
					"destination" : [ "obj-19", 0 ],
					"source" : [ "obj-51", 0 ]
				}

			}
, 			{
				"patchline" : 				{
					"destination" : [ "obj-60", 0 ],
					"source" : [ "obj-59", 0 ]
				}

			}
, 			{
				"patchline" : 				{
					"destination" : [ "obj-62", 1 ],
					"source" : [ "obj-60", 0 ]
				}

			}
, 			{
				"patchline" : 				{
					"destination" : [ "obj-63", 0 ],
					"source" : [ "obj-60", 1 ]
				}

			}
, 			{
				"patchline" : 				{
					"destination" : [ "obj-51", 0 ],
					"source" : [ "obj-62", 0 ]
				}

			}
, 			{
				"patchline" : 				{
					"destination" : [ "obj-66", 0 ],
					"source" : [ "obj-63", 0 ]
				}

			}
, 			{
				"patchline" : 				{
					"destination" : [ "obj-75", 0 ],
					"source" : [ "obj-66", 0 ]
				}

			}
, 			{
				"patchline" : 				{
					"destination" : [ "obj-62", 0 ],
					"source" : [ "obj-75", 0 ]
				}

			}
, 			{
				"patchline" : 				{
					"destination" : [ "obj-20", 0 ],
					"source" : [ "obj-78", 0 ]
				}

			}
, 			{
				"patchline" : 				{
					"destination" : [ "obj-1", 0 ],
					"source" : [ "obj-8", 0 ]
				}

			}
, 			{
				"patchline" : 				{
					"destination" : [ "obj-78", 1 ],
					"source" : [ "obj-81", 0 ]
				}

			}
, 			{
				"patchline" : 				{
					"destination" : [ "obj-92", 0 ],
					"source" : [ "obj-84", 0 ]
				}

			}
, 			{
				"patchline" : 				{
					"destination" : [ "obj-84", 0 ],
					"source" : [ "obj-85", 0 ]
				}

			}
, 			{
				"patchline" : 				{
					"destination" : [ "obj-85", 0 ],
					"source" : [ "obj-86", 0 ]
				}

			}
, 			{
				"patchline" : 				{
					"destination" : [ "obj-85", 1 ],
					"source" : [ "obj-87", 0 ]
				}

			}
, 			{
				"patchline" : 				{
					"destination" : [ "obj-89", 0 ],
					"source" : [ "obj-88", 0 ]
				}

			}
, 			{
				"patchline" : 				{
					"destination" : [ "obj-84", 4 ],
					"source" : [ "obj-89", 0 ]
				}

			}
, 			{
				"patchline" : 				{
					"destination" : [ "obj-21", 0 ],
					"source" : [ "obj-90", 0 ]
				}

			}
, 			{
				"patchline" : 				{
					"destination" : [ "obj-93", 0 ],
					"source" : [ "obj-92", 0 ]
				}

			}
, 			{
				"patchline" : 				{
					"destination" : [ "obj-90", 1 ],
					"midpoints" : [ 917.325303375720978, 369.0, 823.208042323589325, 369.0 ],
					"source" : [ "obj-93", 0 ]
				}

			}
, 			{
				"patchline" : 				{
					"destination" : [ "obj-97", 0 ],
					"source" : [ "obj-96", 0 ]
				}

			}
, 			{
				"patchline" : 				{
					"destination" : [ "obj-12", 0 ],
					"source" : [ "obj-97", 0 ]
				}

			}
 ],
		"parameters" : 		{
			"obj-20" : [ "mc.live.gain~", "mc.live.gain~", 0 ],
			"parameterbanks" : 			{
				"0" : 				{
					"index" : 0,
					"name" : "",
					"parameters" : [ "-", "-", "-", "-", "-", "-", "-", "-" ]
				}

			}
,
			"inherited_shortname" : 1
		}
,
		"dependency_cache" : [ 			{
				"name" : "bufferLoad.txt",
				"bootpath" : "~/Documents/max-projects/ircam-ciee/class_4_buffers",
				"patcherrelativepath" : ".",
				"type" : "TEXT",
				"implicit" : 1
			}
 ],
		"autosave" : 0
	}

}
